{
  "accessors": [
    {
      "bufferView": 2,
      "componentType": 5126,
      "count": 579,
      "max": [1.6261287927627563, 2.2121801376342773, 1.0156102180480957],
      "min": [-1.6261287927627563, -0.040657937526702881, -1.0156102180480957],
      "type": "VEC3"
    },
    {
      "bufferView": 2,
      "byteOffset": 6948,
      "componentType": 5126,
      "count": 579,
      "max": [1, 1, 1],
      "min": [-0.99999964237213135, -1, -0.98887604475021362],
      "type": "VEC3"
    },
    {
      "bufferView": 1,
      "componentType": 5126,
      "count": 579,
      "max": [0.99190413951873779, 0.98668122291564941],
      "min": [0.0059145987033843994, 0.0058410968631505966],
      "type": "VEC2"
    },
    {
      "bufferView": 0,
      "componentType": 5125,
      "count": 924,
      "max": [578],
      "min": [0],
      "type": "SCALAR"
    }
  ],
  "asset": {
    "extras": {
      "author": "FinnyInTheBinny (https://sketchfab.com/FinnyInTheBinny)",
      "license": "CC-BY-4.0 (http://creativecommons.org/licenses/by/4.0/)",
      "source": "https://sketchfab.com/3d-models/bonsai-tree-6d4efe0898a44b86b28e7cff3cedbbd8",
      "title": "Bonsai Tree"
    },
    "generator": "Sketchfab-9.72.0",
    "version": "2.0"
  },
  "bufferViews": [
    {
      "buffer": 0,
      "byteLength": 3696,
      "byteOffset": 0,
      "name": "floatBufferViews",
      "target": 34963
    },
    {
      "buffer": 0,
      "byteLength": 4632,
      "byteOffset": 3696,
      "byteStride": 8,
      "name": "floatBufferViews",
      "target": 34962
    },
    {
      "buffer": 0,
      "byteLength": 13896,
      "byteOffset": 8328,
      "byteStride": 12,
      "name": "floatBufferViews",
      "target": 34962
    }
  ],
  "buffers": [
    {
      "byteLength": 22224,
      "uri": "./scene.bin"
    }
  ],
  "images": [
    {
      "uri": "./textures/lambert7_baseColor.png"
    }
  ],
  "materials": [
    {
      "doubleSided": true,
      "emissiveFactor": [0, 0, 0],
      "name": "lambert7",
      "pbrMetallicRoughness": {
        "baseColorFactor": [1, 1, 1, 1],
        "baseColorTexture": {
          "index": 0,
          "texCoord": 0
        },
        "metallicFactor": 0,
        "roughnessFactor": 0.59999999999999998
      }
    }
  ],
  "meshes": [
    {
      "name": "pPlatonic5_lambert7_0",
      "primitives": [
        {
          "attributes": {
            "NORMAL": 1,
            "POSITION": 0,
            "TEXCOORD_0": 2
          },
          "indices": 3,
          "material": 0,
          "mode": 4
        }
      ]
    }
  ],
  "nodes": [
    {
      "children": [1],
      "name": "RootNode (gltf orientation matrix)",
      "rotation": [-0.70710678118654746, -0, -0, 0.70710678118654757]
    },
    {
      "children": [2],
      "name": "RootNode (model correction matrix)"
    },
    {
      "children": [3],
      "matrix": [1, 0, 0, 0, 0, 0, 1, 0, 0, -1, 0, 0, 0, 0, 0, 1],
      "name": "7eba432468b94832a3c1d26a3280f974.fbx"
    },
    {
      "children": [4],
      "name": "RootNode"
    },
    {
      "children": [5],
      "matrix": [
        1,
        0,
        0,
        0,
        0,
        1,
        0,
        0,
        0,
        0,
        1,
        0,
        -3.7336840629577637,
        0,
        0,
        1
      ],
      "name": "pPlatonic5"
    },
    {
      "mesh": 0,
      "name": "pPlatonic5_lambert7_0"
    }
  ],
  "samplers": [
    {
      "magFilter": 9729,
      "minFilter": 9987,
      "wrapS": 10497,
      "wrapT": 10497
    }
  ],
  "scene": 0,
  "scenes": [
    {
      "name": "OSG_Scene",
      "nodes": [0]
    }
  ],
  "textures": [
    {
      "sampler": 0,
      "source": 0
    }
  ]
}
