{
  "accessors": [
    {
      "bufferView": 2,
      "componentType": 5126,
      "count": 16422,
      "max": [2.8417906761169434, 5.5746579170227051, 1.887412428855896],
      "min": [-2.5714356899261475, -0.15875923633575439, -2.9008767604827881],
      "type": "VEC3"
    },
    {
      "bufferView": 2,
      "byteOffset": 197064,
      "componentType": 5126,
      "count": 16422,
      "max": [0.99966639280319214, 0.99978893995285034, 0.99850296974182129],
      "min": [-0.9998207688331604, -0.99980837106704712, -0.99977916479110718],
      "type": "VEC3"
    },
    {
      "bufferView": 3,
      "componentType": 5126,
      "count": 16422,
      "max": [0.80784314870834351, 0.83137255907058716, 0.7764706015586853, 1],
      "min": [
        0.25098040699958801,
        0.43137255311012268,
        0.054901961237192154,
        1
      ],
      "type": "VEC4"
    },
    {
      "bufferView": 1,
      "componentType": 5126,
      "count": 16422,
      "max": [0, 1],
      "min": [0, 1],
      "type": "VEC2"
    },
    {
      "bufferView": 0,
      "componentType": 5125,
      "count": 16422,
      "max": [16421],
      "min": [0],
      "type": "SCALAR"
    },
    {
      "bufferView": 2,
      "byteOffset": 394128,
      "componentType": 5126,
      "count": 3072,
      "max": [2.2777719497680664, 1.2214927673339844, 0.84074252843856812],
      "min": [-1.4587875604629517, -0.06407523900270462, -2.5892493724822998],
      "type": "VEC3"
    },
    {
      "bufferView": 2,
      "byteOffset": 430992,
      "componentType": 5126,
      "count": 3072,
      "max": [0.99638748168945312, 0.98470818996429443, 0.99875146150588989],
      "min": [-0.99992120265960693, -0.98902022838592529, -0.99683654308319092],
      "type": "VEC3"
    },
    {
      "bufferView": 3,
      "byteOffset": 262752,
      "componentType": 5126,
      "count": 3072,
      "max": [0.27058824896812439, 0.35686275362968445, 0, 1],
      "min": [0.14117647707462311, 0.16862745583057404, 0, 1],
      "type": "VEC4"
    },
    {
      "bufferView": 1,
      "byteOffset": 131376,
      "componentType": 5126,
      "count": 3072,
      "max": [0.97727274894714355, 1],
      "min": [0, 0],
      "type": "VEC2"
    },
    {
      "bufferView": 0,
      "byteOffset": 65688,
      "componentType": 5125,
      "count": 8514,
      "max": [3071],
      "min": [0],
      "type": "SCALAR"
    },
    {
      "bufferView": 2,
      "byteOffset": 467856,
      "componentType": 5126,
      "count": 2958,
      "max": [2.457655668258667, 4.6094813346862793, 1.6067308187484741],
      "min": [-2.282623291015625, -0.13230244815349579, -1.4867010116577148],
      "type": "VEC3"
    },
    {
      "bufferView": 2,
      "byteOffset": 503352,
      "componentType": 5126,
      "count": 2958,
      "max": [0.9977487325668335, 0.99925428628921509, 0.98919218778610229],
      "min": [-0.99921822547912598, -0.93135392665863037, -0.99850749969482422],
      "type": "VEC3"
    },
    {
      "bufferView": 3,
      "byteOffset": 311904,
      "componentType": 5126,
      "count": 2958,
      "max": [0.27058824896812439, 0.16862745583057404, 0, 1],
      "min": [0.27058824896812439, 0.16862745583057404, 0, 1],
      "type": "VEC4"
    },
    {
      "bufferView": 1,
      "byteOffset": 155952,
      "componentType": 5126,
      "count": 2958,
      "max": [0.98795181512832642, 1],
      "min": [0, 0],
      "type": "VEC2"
    },
    {
      "bufferView": 0,
      "byteOffset": 99744,
      "componentType": 5125,
      "count": 8676,
      "max": [2957],
      "min": [0],
      "type": "SCALAR"
    },
    {
      "bufferView": 2,
      "byteOffset": 538848,
      "componentType": 5126,
      "count": 16470,
      "max": [2.8460114002227783, 5.4996738433837891, 2.3398261070251465],
      "min": [-2.816535472869873, 1.5153290033340454, -2.8306784629821777],
      "type": "VEC3"
    },
    {
      "bufferView": 2,
      "byteOffset": 736488,
      "componentType": 5126,
      "count": 16470,
      "max": [0.99973815679550171, 0.99978375434875488, 0.99997556209564209],
      "min": [-0.99995625019073486, -0.99938637018203735, -0.99985158443450928],
      "type": "VEC3"
    },
    {
      "bufferView": 3,
      "byteOffset": 359232,
      "componentType": 5126,
      "count": 16470,
      "max": [0.44705882668495178, 0.20392157137393951, 0.3803921639919281, 1],
      "min": [0.44705882668495178, 0.20392157137393951, 0.3803921639919281, 1],
      "type": "VEC4"
    },
    {
      "bufferView": 1,
      "byteOffset": 179616,
      "componentType": 5126,
      "count": 16470,
      "max": [0, 1],
      "min": [0, 1],
      "type": "VEC2"
    },
    {
      "bufferView": 0,
      "byteOffset": 134448,
      "componentType": 5125,
      "count": 16470,
      "max": [16469],
      "min": [0],
      "type": "SCALAR"
    }
  ],
  "asset": {
    "extras": {
      "author": "nicosalga (https://sketchfab.com/nicosalga)",
      "license": "CC-BY-SA-4.0 (http://creativecommons.org/licenses/by-sa/4.0/)",
      "source": "https://sketchfab.com/3d-models/fantasy-bonsai-296d973b8d804797b842d5eac701bb1d",
      "title": "Fantasy Bonsai"
    },
    "generator": "Sketchfab-9.89.0",
    "version": "2.0"
  },
  "bufferViews": [
    {
      "buffer": 0,
      "byteLength": 200328,
      "byteOffset": 0,
      "name": "floatBufferViews",
      "target": 34963
    },
    {
      "buffer": 0,
      "byteLength": 311376,
      "byteOffset": 200328,
      "byteStride": 8,
      "name": "floatBufferViews",
      "target": 34962
    },
    {
      "buffer": 0,
      "byteLength": 934128,
      "byteOffset": 511704,
      "byteStride": 12,
      "name": "floatBufferViews",
      "target": 34962
    },
    {
      "buffer": 0,
      "byteLength": 622752,
      "byteOffset": 1445832,
      "byteStride": 16,
      "name": "floatBufferViews",
      "target": 34962
    }
  ],
  "buffers": [
    {
      "byteLength": 2068584,
      "uri": "big-bonsai.bin"
    }
  ],
  "materials": [
    {
      "doubleSided": true,
      "emissiveFactor": [0, 0, 0],
      "name": "brush_MatteHull",
      "pbrMetallicRoughness": {
        "baseColorFactor": [1, 1, 1, 1],
        "metallicFactor": 1,
        "roughnessFactor": 1
      }
    },
    {
      "doubleSided": false,
      "emissiveFactor": [0, 0, 0],
      "name": "brush_Spikes",
      "pbrMetallicRoughness": {
        "baseColorFactor": [1, 1, 1, 1],
        "metallicFactor": 1,
        "roughnessFactor": 1
      }
    }
  ],
  "meshes": [
    {
      "primitives": [
        {
          "attributes": {
            "COLOR_0": 2,
            "NORMAL": 1,
            "POSITION": 0,
            "TEXCOORD_0": 3
          },
          "indices": 4,
          "material": 0,
          "mode": 4
        }
      ]
    },
    {
      "primitives": [
        {
          "attributes": {
            "COLOR_0": 7,
            "NORMAL": 6,
            "POSITION": 5,
            "TEXCOORD_0": 8
          },
          "indices": 9,
          "material": 1,
          "mode": 4
        }
      ]
    },
    {
      "primitives": [
        {
          "attributes": {
            "COLOR_0": 12,
            "NORMAL": 11,
            "POSITION": 10,
            "TEXCOORD_0": 13
          },
          "indices": 14,
          "material": 1,
          "mode": 4
        }
      ]
    },
    {
      "primitives": [
        {
          "attributes": {
            "COLOR_0": 17,
            "NORMAL": 16,
            "POSITION": 15,
            "TEXCOORD_0": 18
          },
          "indices": 19,
          "material": 0,
          "mode": 4
        }
      ]
    }
  ],
  "nodes": [
    {
      "children": [1],
      "name": "RootNode (gltf orientation matrix)",
      "rotation": [-0.70710678118654746, -0, -0, 0.70710678118654757]
    },
    {
      "children": [2],
      "matrix": [
        0.9971766471862793,
        0.074259452521800995,
        0.011148672550916672,
        0,
        -0.074708923697471619,
        0.99606990814208984,
        0.04757404699921608,
        0,
        -0.00757203483954072,
        -0.04827263206243515,
        0.99880552291870117,
        0,
        0.033092446625232697,
        0.077102251350879669,
        -0.011602411046624184,
        1
      ],
      "name": "RootNode (model correction matrix)"
    },
    {
      "children": [3],
      "name": "root"
    },
    {
      "children": [4, 6, 8],
      "matrix": [
        1,
        0,
        0,
        0,
        0,
        2.2204460492503131e-16,
        1,
        0,
        0,
        -1,
        2.2204460492503131e-16,
        0,
        0,
        0,
        0,
        1
      ],
      "name": "GLTF_SceneRootNode"
    },
    {
      "children": [5],
      "name": "brush_MatteHull_g0_b0_0"
    },
    {
      "mesh": 0,
      "name": ""
    },
    {
      "children": [7],
      "name": "brush_Spikes_g0_b0_3"
    },
    {
      "mesh": 1,
      "name": ""
    },
    {
      "children": [9, 11],
      "name": "node_group_1_4"
    },
    {
      "children": [10],
      "name": "brush_Spikes_g1_b0_5"
    },
    {
      "mesh": 2,
      "name": ""
    },
    {
      "children": [12],
      "name": "brush_MatteHull_g1_b0_6"
    },
    {
      "mesh": 3,
      "name": ""
    }
  ],
  "scene": 0,
  "scenes": [
    {
      "name": "OSG_Scene",
      "nodes": [0]
    }
  ]
}
